<?xml version="1.0" encoding="utf-8"?>
<!-- Uploaded to: SVG Repo, www.svgrepo.com, Generator: SVG Repo Mixer Tools -->
<svg fill="#000000" height="800px" width="800px" version="1.2" baseProfile="tiny" id="Layer_1" xmlns="http://www.w3.org/2000/svg" xmlns:xlink="http://www.w3.org/1999/xlink"
	  viewBox="-351 153 256 256" xml:space="preserve">
<path id="_x31_" d="M-164.4,311.7h17.8v51h-17.8V311.7z M-136.1,311.7v51.2l39.5,17.6V294L-136.1,311.7z M-307.6,276
	c-5.3,0-10,4.2-10,10v103c0,5.3,4.2,10,10,10h123.2c5.3,0,10-4.2,10-10V286c0-5.3-4.2-10-10-10h-11.3h-102.1H-307.6z M-298,163.6
	c28.2,0,51,22.8,51,51s-22.8,51-51,51c-28.2,0-51-22.8-51-51S-326.2,163.6-298,163.6z M-195.8,163.6c28.2,0,51,22.8,51,51
	s-22.8,51-51,51s-51-22.8-51-51S-224,163.6-195.8,163.6z"/>
</svg>